<svg t="1773737054467" class="icon" viewBox="0 0 1024 1024" version="1.1" xmlns="http://www.w3.org/2000/svg" p-id="1814" width="16" height="16"><path d="M749.245124 493.965586c0.887458 0.017067 2.542909 0.230398 3.626632 0.34133 2.167446 31.026904 8.336987 45.388367 11.946553 84.163465 7.526328 80.79283-7.458062 160.740868-40.737745 235.133758-16.460643 36.795383-39.534556 67.651622-62.420738 100.726507l-51.984572 51.464042c-9.958305 9.864439-71.901181 47.999542-90.589003 55.884267l-1.672517 2.056514c-132.470204 4.258093-257.397013-43.383053-348.028682-145.713811C44.202245 736.676872 29.465319 524.975424 135.644574 365.139081c4.249559-6.399939 10.948162-12.125751 15.598784-16.153446-11.690555 5.845278 52.010171 82.900543 59.77543 92.346853 12.680412 15.42812 24.16617 26.862677 37.776707 41.352139 9.531642 6.9546 25.437624 14.37853 38.228969 11.076161 76.765135-19.788611 148.384719-44.099846 222.521612-72.430243l161.670992 54.979743 59.980228 17.296902 18.047828 0.358396z" fill="#94BF15" p-id="1815"></path><path d="M517.405201 1023.735469l1.672517-2.056514c18.687822-7.876192 80.630698-46.019828 90.589003-55.884267l51.984571-51.464042c22.886182-33.083418 45.960095-63.931124 62.420739-100.726507 33.271149-74.392891 48.25554-154.340929 40.737744-235.133758-3.609566-38.775097-9.770574-53.13656-11.946552-84.163465 38.211902-16.929972 89.155417-88.327691 115.343967-126.087331 3.080504-4.437291 6.263407-14.591861 7.244731-19.404615 5.777012 4.497024 13.354539 15.726783 18.013695 23.372577 24.780564 40.669479 43.775583 83.506404 54.587213 130.686754 34.508471 150.560698-12.245217 303.980035-126.24093 408.537972-83.395472 76.492071-193.278157 115.898628-304.423765 112.331729z" fill="#55A02F" p-id="1816"></path><path d="M364.258927 244.692229c-1.169056 6.391406-28.227998 7.577528-32.870086 25.258426-2.875706 10.965229 6.289007 21.298997 13.508138 20.889401 5.939143 21.657394 89.172483 35.796992 112.186663 37.913239 32.460491 2.986638 64.135922 3.029304 97.082808 0.460795l35.899391-2.798906c2.508776-0.196265 9.804707-4.164227 9.898573-4.795688l26.359215-4.394625c3.643699-0.605861 10.299635-2.892772 14.216398-4.061828-0.136532-0.076799 1.919982 5.828211 2.995171 7.526329l41.079075 65.415909 58.794107 93.567108c2.312511 3.677832 5.230883 11.963619 5.845277 14.293197l-18.047828-0.358396-59.980228-17.296902-161.670992-54.979743c-74.136893 28.330397-145.756477 52.641631-222.521612 72.430243-12.791345 3.293835-28.688793-4.121561-38.228969-11.076161-13.610537-14.497995-25.087761-25.92402-37.776706-41.352139-7.773793-9.44631-71.465985-86.501575-59.775431-92.346853 10.623899-9.215912 22.186455-18.926753 34.63647-28.236531l23.867506-17.84303c39.764954-29.721317 77.097932-60.304492 117.554079-85.477585l14.992924-4.317825 4.616489 30.250378 17.339568 1.331187z" fill="#FDEBCF" p-id="1817"></path><path d="M875.468987 348.81497c-0.981324 4.812754-4.17276 14.967324-7.244731 19.404615-26.18855 37.75964-77.132065 109.157359-115.343967 126.087331-1.083723-0.110932-2.739174-0.324264-3.626632-0.34133-0.614394-2.329578-3.532766-10.615365-5.845277-14.293197l-58.794107-93.567108-41.079075-65.415909c-1.066656-1.698117-3.12317-7.603128-2.995171-7.526329l6.417005-2.38931c13.337473-4.974886 26.436015-11.22976 34.022076-20.838202 4.599423-2.75624 8.968448-5.708746 11.818554-8.797782 10.171636-11.033495-15.274521-35.583661-34.29514-36.462586 0.853325-12.876677 5.137018-27.033342 13.132675-36.718583 4.56529-0.179198 19.754478 0.588794 25.48029 4.863953l91.578861 68.411081 86.774639 67.583356z" fill="#F7CD99" p-id="1818"></path><path d="M671.626664 207.95658c-7.995657 9.685241-12.27935 23.833373-13.132675 36.718583-3.387701 5.213817-6.673003 11.716155-9.173246 17.81743-0.793592 1.288521-3.302369 6.442605-3.993562 8.652718l-8.115122 26.034951c-1.800516 5.777012-7.389796 15.001457-10.896963 20.044609l-26.359216 4.394625-18.10756-1.774916 21.094199-60.748221 9.232978-28.552261c3.848497-11.903887 8.42232-23.45791 10.188703-35.447129 4.59089-7.202065 9.83884-17.373701 13.200941-26.820011l49.450195-138.682411c8.123656-22.77525 44.782506-34.320739 66.593499-27.775736l164.051769 49.219798c6.451138 2.227179 5.913544 22.109656 2.705041 28.765592-4.019162 8.354054-15.274521 12.006286-25.915486 8.857516L744.603035 44.817868c-14.139599-4.189827-22.869115 8.336987-26.512814 19.029152l-41.59107 121.820705c-2.380777 6.963134-4.053295 15.897448-4.88102 22.288855z" fill="#0185C5" p-id="1819"></path><path d="M622.381267 195.105502c-1.766383 11.989219-6.340206 23.534709-10.188703 35.447129l-50.909382-6.510871c-69.085208-8.840449-132.410471 4.113027-197.015721 20.659003l-17.339568-1.331188-4.61649-30.250378-14.992923 4.317826c2.005314-6.092742 9.574309-7.807926 18.611022-9.173246 55.355206-8.336987 107.365376-19.91661 163.155778-24.592833 25.710688-2.150379 54.84321 6.562071 80.280835 8.686851l33.023685 2.75624z" fill="#F5CA96" p-id="1820"></path><path d="M602.959585 259.104892l-21.094199 60.748221 18.107561 1.774916c-0.093866 0.631461-7.389796 4.599423-9.898572 4.795688l-35.899391 2.798907c-32.946886 2.568509-64.630851 2.525843-97.082808-0.460796-23.014181-2.116246-106.24752-16.255845-112.186664-37.913239 18.192893-18.073428 96.075884-31.615699 124.355081-35.088732 42.231064-5.179684 83.250406-1.501852 125.600936 2.559976l8.106589 0.776526z" fill="#93D7F1" p-id="1821"></path><path d="M612.184031 230.552631l-9.232979 28.552261-8.10659-0.776526c-42.35053-4.061828-83.369872-7.748193-125.600935-2.559976-28.28773 3.473034-106.170721 17.006771-124.355082 35.088733-7.219131 0.409596-16.383844-9.924172-13.508137-20.889401 4.642089-17.689431 31.701031-18.875553 32.870086-25.258426 64.605251-16.545976 127.930514-29.490919 197.015722-20.659003l50.909381 6.510871z" fill="#FDFDFB" p-id="1822"></path><path d="M680.979108 289.935531c-7.586061 9.608442-20.684603 15.863315-34.022076 20.838202l-6.417005 2.38931c-3.916763 1.177589-10.564166 3.455967-14.216398 4.061828 3.507167-5.051685 9.096447-14.267597 10.896963-20.044609l8.115122-26.034951c0.691193-2.210112 3.199969-7.364196 3.993562-8.652718-4.334892 16.74224 22.962981 13.286273 31.649832 27.442938z" fill="#9BDAEE" p-id="1823"></path><path d="M680.979108 289.935531c-8.686851-14.156665-35.984724-10.700698-31.649832-27.442938 2.500243-6.101275 5.785545-12.603613 9.173246-17.81743 19.020619 0.878925 44.466776 25.429091 34.29514 36.462586-2.850106 3.089037-7.219131 6.041542-11.818554 8.797782z" fill="#F8FAF7" p-id="1824"></path></svg>